<svg xmlns="http://www.w3.org/2000/svg" width="22" height="22" fill="none" viewBox="0 0 22 22"><path fill="#7B3AEC" d="M12.4986 19V11.7022H14.995L15.3695 8.85725H12.4986V7.04118C12.4986 6.21776 12.7308 5.65661 13.936 5.65661L15.4706 5.65599V3.11138C15.2052 3.07756 14.2942 3 13.2339 3C11.0198 3 9.50399 4.32557 9.50399 6.75942V8.85725H7V11.7022H9.50399V19H12.4986Z" clipRule="evenodd" fillRule="evenodd"/><mask id="mask0" width="9" height="16" x="7" y="3" mask-type="alpha" maskUnits="userSpaceOnUse"><path fill="#fff" d="M12.4986 19V11.7022H14.995L15.3695 8.85725H12.4986V7.04118C12.4986 6.21776 12.7308 5.65661 13.936 5.65661L15.4706 5.65599V3.11138C15.2052 3.07756 14.2942 3 13.2339 3C11.0198 3 9.50399 4.32557 9.50399 6.75942V8.85725H7V11.7022H9.50399V19H12.4986Z" clipRule="evenodd" fillRule="evenodd"/></mask></svg>